<svg version="1.0" xmlns="http://www.w3.org/2000/svg"
 width="500.000000pt" height="500.000000pt" viewBox="0 0 500.000000 500.000000">
<g transform="translate(0.000000,500.000000) scale(0.100000,-0.100000)"
fill="#000000" stroke="none">
<path d="M1190 3586 c0 -3 -70 -490 -155 -1082 -85 -593 -155 -1081 -155
-1086 0 -4 105 -8 234 -8 l234 0 5 23 c3 12 31 205 63 429 l58 408 330 2 329
3 123 210 124 210 -430 3 -430 2 5 23 c4 19 75 465 75 474 0 1 243 3 539 3
l540 0 97 163 c53 89 106 177 116 195 l20 32 -861 0 c-474 0 -861 -2 -861 -4z"/>
<path d="M2966 3568 c-10 -17 -1226 -2068 -1263 -2130 -2 -5 88 -8 200 -8
l205 0 147 240 147 240 556 -2 555 -3 54 -185 c29 -102 60 -209 68 -237 l16
-53 220 0 c205 0 220 1 215 18 -45 144 -589 1896 -622 2000 l-45 142 -219 0
c-217 0 -220 0 -234 -22z m302 -806 c61 -224 112 -410 112 -414 0 -5 -159 -8
-354 -8 l-355 0 237 415 c130 228 239 414 242 415 3 0 56 -183 118 -408z"/>
</g>
</svg>